<svg width="64" height="39" viewBox="0 0 64 39" fill="none" xmlns="http://www.w3.org/2000/svg">
<path d="M43.1058 24.5911L50.0754 14.0353L50.8332 26.6617L43.1058 24.5911Z" fill="#FF1100"/>
<path d="M50.8332 26.6617L43.8637 37.2175L43.1058 24.5911L50.8332 26.6617Z" fill="#005295"/>
<ellipse cx="46.9695" cy="25.6264" rx="1.14286" ry="1" transform="rotate(15 46.9695 25.6264)" fill="white"/>
<path d="M20.2628 24.528C20.2628 24.912 20.2308 25.3067 20.1668 25.712C20.1028 26.096 20.0494 26.48 20.0068 26.864C19.9428 27.2907 19.9001 27.728 19.8788 28.176C19.8574 28.6027 19.7934 29.0293 19.6868 29.456C19.6654 29.584 19.6014 29.712 19.4948 29.84C19.4094 29.9467 19.2921 30 19.1428 30C16.8601 30 14.5774 29.9893 12.2948 29.968C10.0121 29.9253 7.72942 29.904 5.44675 29.904C4.76408 29.904 4.07075 29.936 3.36675 30C2.68408 30.0427 2.00142 30.064 1.31875 30.064C1.21208 30.064 1.10542 30.032 0.99875 29.968C0.913417 29.8827 0.87075 29.7867 0.87075 29.68C0.87075 29.552 0.90275 29.4347 0.96675 29.328C1.03075 29.2 1.13742 29.136 1.28675 29.136C1.73475 29.136 2.16142 29.1147 2.56675 29.072C2.97208 29.008 3.30275 28.8587 3.55875 28.624C3.83608 28.368 3.97475 27.9627 3.97475 27.408V9.04C3.97475 8.54933 3.82542 8.22933 3.52675 8.08C3.22808 7.90933 2.86542 7.824 2.43875 7.824C2.22542 7.824 2.02275 7.83467 1.83075 7.856C1.63875 7.856 1.44675 7.856 1.25475 7.856C1.08408 7.856 0.93475 7.81333 0.80675 7.728C0.67875 7.64267 0.61475 7.504 0.61475 7.312C0.61475 7.14133 0.64675 6.992 0.71075 6.864C0.77475 6.736 0.913417 6.672 1.12675 6.672C1.48942 6.672 1.84142 6.68267 2.18275 6.704C2.54542 6.72533 2.89742 6.736 3.23875 6.736C5.39342 6.736 7.54808 6.72533 9.70275 6.704C11.8574 6.66133 14.0014 6.64 16.1348 6.64C17.1161 6.64 18.0868 6.608 19.0468 6.544C19.1321 7.16267 19.2388 7.78133 19.3668 8.4C19.4948 9.01867 19.6014 9.63733 19.6868 10.256C19.7294 10.384 19.7614 10.512 19.7828 10.64C19.8041 10.7467 19.8148 10.864 19.8148 10.992C19.8148 11.2053 19.7401 11.3547 19.5908 11.44C19.4628 11.5253 19.3028 11.568 19.1108 11.568C18.9401 11.568 18.8121 11.536 18.7268 11.472C18.6628 11.3867 18.5988 11.2587 18.5347 11.088C18.1294 9.808 17.5854 8.92267 16.9028 8.432C16.2414 7.94133 15.2281 7.696 13.8628 7.696H7.20675V17.328C8.03875 17.328 8.87075 17.328 9.70275 17.328C10.5348 17.3067 11.3774 17.2747 12.2308 17.232C13.1054 17.1893 13.9161 17.1147 14.6628 17.008C15.4308 16.88 16.2414 16.7413 17.0948 16.592H17.1268C17.2548 16.592 17.3188 16.6453 17.3188 16.752C17.3188 16.9013 17.2548 17.168 17.1268 17.552C16.9988 17.936 16.9028 18.192 16.8388 18.32C16.7321 18.576 16.5614 18.704 16.3268 18.704C15.7934 18.704 15.2388 18.672 14.6628 18.608C14.1081 18.5227 13.5534 18.48 12.9988 18.48C12.6148 18.4587 12.2308 18.4587 11.8468 18.48C11.4628 18.48 11.0681 18.48 10.6628 18.48C10.5134 18.48 10.3534 18.48 10.1828 18.48C10.0334 18.4587 9.87342 18.448 9.70275 18.448C9.38275 18.448 9.03075 18.48 8.64675 18.544C8.26275 18.5867 7.92142 18.7147 7.62275 18.928C7.34542 19.12 7.20675 19.44 7.20675 19.888V27.568C7.20675 28.2933 7.38808 28.72 7.75075 28.848C8.11342 28.9547 8.59342 29.008 9.19075 29.008H11.7508C12.3481 29.008 13.0094 28.976 13.7348 28.912C14.4814 28.848 15.2068 28.7093 15.9108 28.496C16.6148 28.2827 17.1908 27.9733 17.6388 27.568C18.1294 27.12 18.4708 26.6293 18.6628 26.096C18.8761 25.5413 19.1214 24.9867 19.3988 24.432C19.5054 24.24 19.6761 24.144 19.9108 24.144C20.1454 24.144 20.2628 24.272 20.2628 24.528Z" fill="black"/>
<path d="M32.7923 19.1C32.7923 19.2867 32.7123 19.38 32.5523 19.38C32.499 19.38 32.4523 19.38 32.4123 19.38C32.3723 19.3667 32.339 19.3333 32.3123 19.28C32.299 19.2533 32.279 19.1933 32.2523 19.1C32.239 18.9933 32.2323 18.92 32.2323 18.88C32.1657 18.48 32.0657 18.04 31.9323 17.56C31.8123 17.0667 31.619 16.6667 31.3523 16.36C31.219 16.2 30.9923 16.0933 30.6723 16.04C30.3523 15.9867 30.0257 15.96 29.6923 15.96C29.359 15.96 29.099 15.96 28.9123 15.96C28.7123 15.96 28.4657 15.96 28.1723 15.96C27.8923 15.96 27.639 16.0133 27.4123 16.12C27.199 16.2267 27.0923 16.44 27.0923 16.76C27.0923 18.7733 27.099 20.7933 27.1123 22.82C27.139 24.8333 27.1523 26.8533 27.1523 28.88C27.1523 29.0533 27.2257 29.1867 27.3723 29.28C27.519 29.36 27.6857 29.4133 27.8723 29.44C28.059 29.4667 28.2123 29.48 28.3323 29.48C28.439 29.48 28.5323 29.48 28.6123 29.48C28.7057 29.4667 28.799 29.46 28.8923 29.46C29.0257 29.46 29.0923 29.52 29.0923 29.64C29.0923 29.6933 29.0923 29.7733 29.0923 29.88C29.0923 29.9733 29.0457 30.02 28.9523 30.02C28.4723 30.02 27.9923 30.0133 27.5123 30C27.0457 29.9733 26.5723 29.96 26.0923 29.96C25.4523 29.96 24.799 29.98 24.1323 30.02C23.9857 30.02 23.8323 30.0267 23.6723 30.04C23.5123 30.0533 23.359 30.06 23.2123 30.06C23.0923 30.06 23.0323 29.9867 23.0323 29.84C23.0323 29.68 23.0523 29.58 23.0923 29.54C23.1323 29.5 23.2257 29.48 23.3723 29.48C23.399 29.48 23.4257 29.4867 23.4523 29.5C23.4923 29.5 23.519 29.5 23.5323 29.5C23.679 29.5 23.8657 29.4867 24.0923 29.46C24.319 29.4333 24.519 29.38 24.6923 29.3C24.879 29.2067 24.9723 29.0667 24.9723 28.88C24.9857 27.8533 24.9923 26.8267 24.9923 25.8C25.0057 24.7733 25.0123 23.7467 25.0123 22.72C25.0123 21.7067 25.0057 20.7 24.9923 19.7C24.979 18.6867 24.9723 17.6733 24.9723 16.66C24.9723 16.5 24.9057 16.3533 24.7723 16.22C24.6523 16.0867 24.519 16.0133 24.3723 16C24.2523 15.9733 24.1257 15.96 23.9923 15.96C23.8723 15.96 23.7457 15.96 23.6123 15.96H21.8323C21.3523 15.96 20.9923 16.08 20.7523 16.32C20.5257 16.5467 20.3657 16.8467 20.2723 17.22C20.179 17.58 20.0923 17.9533 20.0123 18.34C20.0123 18.3667 19.9923 18.46 19.9523 18.62C19.9257 18.7667 19.8923 18.9133 19.8523 19.06C19.8257 19.1933 19.8057 19.2667 19.7923 19.28C19.739 19.3467 19.659 19.38 19.5523 19.38C19.4057 19.38 19.3323 19.3067 19.3323 19.16C19.3323 19.1067 19.3323 19.04 19.3323 18.96C19.3457 18.8667 19.359 18.76 19.3723 18.64C19.399 18.3333 19.419 17.9667 19.4323 17.54C19.459 17.1 19.479 16.6933 19.4923 16.32C19.5057 16.1867 19.5123 16.0533 19.5123 15.92C19.5123 15.7867 19.519 15.6667 19.5323 15.56C19.5323 15.3733 19.6457 15.2933 19.8723 15.32C20.8457 15.4133 21.8257 15.46 22.8123 15.46C23.8123 15.4467 24.799 15.44 25.7723 15.44H27.4723C28.019 15.44 28.5657 15.44 29.1123 15.44C29.6723 15.4267 30.2323 15.4133 30.7923 15.4C31.0323 15.3867 31.279 15.38 31.5323 15.38C31.799 15.3667 32.059 15.36 32.3123 15.36C32.4857 15.36 32.5857 15.4267 32.6123 15.56C32.6257 15.6 32.639 15.7467 32.6523 16C32.6657 16.24 32.679 16.52 32.6923 16.84C32.7057 17.1467 32.7123 17.44 32.7123 17.72C32.7257 17.9867 32.7323 18.1733 32.7323 18.28C32.7457 18.4133 32.759 18.5467 32.7723 18.68C32.7857 18.8133 32.7923 18.9533 32.7923 19.1ZM41.6609 21.1C41.6609 21.2333 41.6076 21.36 41.5009 21.48C41.4076 21.5867 41.2876 21.64 41.1409 21.64C40.9409 21.64 40.7943 21.5733 40.7009 21.44C40.6209 21.3067 40.5476 21.1533 40.4809 20.98C40.4276 20.8067 40.3409 20.6533 40.2209 20.52C40.1009 20.3867 39.9009 20.32 39.6209 20.32C39.5676 20.32 39.5143 20.32 39.4609 20.32C39.4209 20.32 39.3743 20.3267 39.3209 20.34C39.0943 20.38 38.8476 20.52 38.5809 20.76C38.3143 21 38.0543 21.2867 37.8009 21.62C37.5609 21.94 37.3609 22.26 37.2009 22.58C37.0409 22.9 36.9543 23.1667 36.9409 23.38C36.9276 23.5933 36.9209 23.8067 36.9209 24.02C36.9209 24.22 36.9209 24.42 36.9209 24.62C36.9209 25.34 36.9209 26.06 36.9209 26.78C36.9343 27.5 36.9409 28.2133 36.9409 28.92C36.9409 29.12 37.0209 29.2667 37.1809 29.36C37.3543 29.44 37.5276 29.48 37.7009 29.48C37.8343 29.48 37.9676 29.4733 38.1009 29.46C38.2343 29.4467 38.3676 29.44 38.5009 29.44C38.5676 29.44 38.6143 29.4733 38.6409 29.54C38.6676 29.5933 38.6809 29.6467 38.6809 29.7C38.6809 29.9133 38.5743 30.02 38.3609 30.02C37.9609 30.02 37.5609 30.0133 37.1609 30C36.7609 29.9733 36.3609 29.96 35.9609 29.96C35.5476 29.96 35.1276 29.9733 34.7009 30C34.2876 30.0267 33.8676 30.04 33.4409 30.04C33.3876 30.04 33.3476 30 33.3209 29.92C33.3076 29.84 33.3009 29.7733 33.3009 29.72C33.3009 29.5867 33.3543 29.5133 33.4609 29.5C33.6076 29.4733 33.7609 29.4667 33.9209 29.48C34.0809 29.4933 34.2276 29.5 34.3609 29.5C34.5609 29.5 34.7209 29.46 34.8409 29.38C34.9743 29.2867 35.0476 29.1333 35.0609 28.92C35.0876 28.4933 35.1009 28.06 35.1009 27.62C35.1143 27.18 35.1209 26.74 35.1209 26.3V24.36C35.1076 23.7867 35.1009 23.22 35.1009 22.66C35.1143 22.0867 35.0943 21.52 35.0409 20.96C35.0276 20.6933 34.9543 20.5067 34.8209 20.4C34.6876 20.28 34.4876 20.22 34.2209 20.22C34.1143 20.22 34.0009 20.2333 33.8809 20.26C33.7743 20.2733 33.6609 20.28 33.5409 20.28C33.4343 20.28 33.3809 20.2 33.3809 20.04C33.3809 19.9467 33.4276 19.88 33.5209 19.84C33.6543 19.8 33.7943 19.7733 33.9409 19.76C34.0876 19.7333 34.2276 19.7133 34.3609 19.7C34.7209 19.6333 35.0809 19.5667 35.4409 19.5C35.8009 19.4333 36.1609 19.3533 36.5209 19.26C36.6409 19.3 36.7276 19.3733 36.7809 19.48C36.8076 19.5333 36.8276 19.68 36.8409 19.92C36.8543 20.16 36.8609 20.44 36.8609 20.76C36.8609 21.0667 36.8609 21.36 36.8609 21.64C36.8609 21.9067 36.8609 22.0933 36.8609 22.2C37.1543 21.7333 37.4876 21.2667 37.8609 20.8C38.2343 20.3333 38.6609 19.9467 39.1409 19.64C39.6209 19.3333 40.1609 19.18 40.7609 19.18C41.0809 19.18 41.2876 19.28 41.3809 19.48C41.4743 19.68 41.5343 19.9133 41.5609 20.18C41.5876 20.3267 41.6076 20.48 41.6209 20.64C41.6476 20.8 41.6609 20.9533 41.6609 21.1Z" fill="black"/>
<path d="M60.756 24.28C60.756 23.8267 60.7293 23.3533 60.676 22.86C60.6227 22.3533 60.5093 21.88 60.336 21.44C60.1627 21 59.9027 20.6467 59.556 20.38C59.2093 20.1 58.736 19.96 58.136 19.96C57.776 19.96 57.3893 20.0533 56.976 20.24C56.576 20.4133 56.2227 20.6533 55.916 20.96C55.6227 21.2667 55.456 21.62 55.416 22.02C55.3893 22.4333 55.376 22.8533 55.376 23.28C55.376 23.7067 55.376 24.1333 55.376 24.56C55.376 24.9333 55.376 25.3133 55.376 25.7C55.3893 26.0733 55.4027 26.4533 55.416 26.84C55.456 27.52 55.676 28.1 56.076 28.58C56.476 29.0467 57.0427 29.28 57.776 29.28C58.4693 29.28 59.016 29.1267 59.416 28.82C59.816 28.5 60.1093 28.0867 60.296 27.58C60.496 27.0733 60.6227 26.5333 60.676 25.96C60.7293 25.3733 60.756 24.8133 60.756 24.28ZM62.816 24.3C62.816 25.34 62.6294 26.28 62.256 27.12C61.8827 27.96 61.3227 28.6267 60.576 29.12C59.8427 29.6 58.9227 29.84 57.816 29.84C57.3893 29.84 56.9493 29.7333 56.496 29.52C56.056 29.2933 55.6827 29.0333 55.376 28.74V33C55.376 33.1867 55.4493 33.2933 55.596 33.32C55.756 33.3467 55.9027 33.36 56.036 33.36C56.156 33.36 56.276 33.3533 56.396 33.34C56.516 33.3267 56.636 33.32 56.756 33.32C56.9293 33.32 57.016 33.4067 57.016 33.58C57.016 33.78 56.916 33.88 56.716 33.88C56.3027 33.88 55.8893 33.8667 55.476 33.84C55.0627 33.8133 54.6493 33.8 54.236 33.8C53.8893 33.8 53.5427 33.8133 53.196 33.84C52.8627 33.8667 52.5227 33.88 52.176 33.88C52.0827 33.88 52.0227 33.8467 51.996 33.78C51.9827 33.7133 51.976 33.6533 51.976 33.6C51.976 33.4133 52.0693 33.32 52.256 33.32C52.3627 33.32 52.4693 33.32 52.576 33.32C52.6827 33.3333 52.7893 33.34 52.896 33.34C52.9893 33.34 53.1227 33.3267 53.296 33.3C53.4827 33.2733 53.576 33.1933 53.576 33.06C53.576 31.6733 53.576 30.28 53.576 28.88C53.5893 27.48 53.596 26.0867 53.596 24.7C53.596 24.0733 53.5893 23.4533 53.576 22.84C53.576 22.2267 53.5693 21.6133 53.556 21C53.5427 20.7067 53.4893 20.5067 53.396 20.4C53.3027 20.28 53.1027 20.22 52.796 20.22C52.6627 20.22 52.5293 20.24 52.396 20.28C52.2627 20.3067 52.1293 20.32 51.996 20.32C51.8493 20.32 51.776 20.2533 51.776 20.12C51.776 20 51.836 19.92 51.956 19.88C51.9827 19.8667 52.1027 19.84 52.316 19.8C52.5293 19.76 52.7827 19.7133 53.076 19.66C53.3827 19.5933 53.6827 19.5333 53.976 19.48C54.2693 19.4267 54.516 19.38 54.716 19.34C54.916 19.3 55.0227 19.28 55.036 19.28C55.1427 19.28 55.216 19.3467 55.256 19.48C55.2827 19.56 55.296 19.7067 55.296 19.92C55.3093 20.12 55.316 20.3267 55.316 20.54C55.316 20.74 55.316 20.8933 55.316 21C55.6893 20.5067 56.1627 20.1 56.736 19.78C57.3227 19.4467 57.9293 19.28 58.556 19.28C59.476 19.28 60.2493 19.5267 60.876 20.02C61.516 20.5 61.996 21.1267 62.316 21.9C62.6493 22.66 62.816 23.46 62.816 24.3Z" fill="black"/>
</svg>
