<svg width="24" height="24" viewBox="0 0 24 24" fill="none" xmlns="http://www.w3.org/2000/svg">
<g filter="url(#filter0_d_59_4)">
<path d="M8 6.98297C7.73478 6.98297 7.48043 7.08833 7.29289 7.27586C7.10536 7.4634 7 7.71775 7 7.98297C7 8.24819 7.10536 8.50254 7.29289 8.69008C7.48043 8.87761 7.73478 8.98297 8 8.98297H16C16.2652 8.98297 16.5196 8.87761 16.7071 8.69008C16.8946 8.50254 17 8.24819 17 7.98297C17 7.71775 16.8946 7.4634 16.7071 7.27586C16.5196 7.08833 16.2652 6.98297 16 6.98297H8ZM7 12C7 11.7348 7.10536 11.4804 7.29289 11.2929C7.48043 11.1053 7.73478 11 8 11H16C16.2652 11 16.5196 11.1053 16.7071 11.2929C16.8946 11.4804 17 11.7348 17 12C17 12.2652 16.8946 12.5195 16.7071 12.7071C16.5196 12.8946 16.2652 13 16 13H8C7.73478 13 7.48043 12.8946 7.29289 12.7071C7.10536 12.5195 7 12.2652 7 12ZM8 15.017C7.73478 15.017 7.48043 15.1223 7.29289 15.3099C7.10536 15.4974 7 15.7518 7 16.017C7 16.2822 7.10536 16.5365 7.29289 16.7241C7.48043 16.9116 7.73478 17.017 8 17.017H16C16.2652 17.017 16.5196 16.9116 16.7071 16.7241C16.8946 16.5365 17 16.2822 17 16.017C17 15.7518 16.8946 15.4974 16.7071 15.3099C16.5196 15.1223 16.2652 15.017 16 15.017H8Z" fill="white"/>
<path fill-rule="evenodd" clip-rule="evenodd" d="M22 12C22 17.523 17.523 22 12 22C6.477 22 2 17.523 2 12C2 6.477 6.477 2 12 2C17.523 2 22 6.477 22 12ZM20 12C20 14.1217 19.1571 16.1566 17.6569 17.6569C16.1566 19.1571 14.1217 20 12 20C9.87827 20 7.84344 19.1571 6.34315 17.6569C4.84285 16.1566 4 14.1217 4 12C4 9.87827 4.84285 7.84344 6.34315 6.34315C7.84344 4.84285 9.87827 4 12 4C14.1217 4 16.1566 4.84285 17.6569 6.34315C19.1571 7.84344 20 9.87827 20 12Z" fill="white"/>
</g>
<defs>
<filter id="filter0_d_59_4" x="0.2" y="0.2" width="23.6" height="23.6" filterUnits="userSpaceOnUse" color-interpolation-filters="sRGB">
<feFlood flood-opacity="0" result="BackgroundImageFix"/>
<feColorMatrix in="SourceAlpha" type="matrix" values="0 0 0 0 0 0 0 0 0 0 0 0 0 0 0 0 0 0 127 0" result="hardAlpha"/>
<feOffset/>
<feGaussianBlur stdDeviation="0.9"/>
<feComposite in2="hardAlpha" operator="out"/>
<feColorMatrix type="matrix" values="0 0 0 0 1 0 0 0 0 1 0 0 0 0 1 0 0 0 1 0"/>
<feBlend mode="normal" in2="BackgroundImageFix" result="effect1_dropShadow_59_4"/>
<feBlend mode="normal" in="SourceGraphic" in2="effect1_dropShadow_59_4" result="shape"/>
</filter>
</defs>
</svg>
