<svg width="30" height="19" viewBox="0 0 30 19" fill="none" xmlns="http://www.w3.org/2000/svg">
<path d="M10.6592 1.93115H18.5595V16.1267H10.6592V1.93115Z" fill="#FF5F00"/>
<path d="M11.1609 9.029C11.1609 6.14478 12.5152 3.58651 14.5968 1.93115C13.067 0.72731 11.1359 0 9.02911 0C4.03791 0 0 4.03791 0 9.029C0 14.0201 4.03791 18.058 9.029 18.058C11.1358 18.058 13.0669 17.3307 14.5968 16.1267C12.5152 14.4965 11.1609 11.9132 11.1609 9.029Z" fill="#EB001B"/>
<path d="M29.2186 9.029C29.2186 14.02 25.1807 18.058 20.1896 18.058C18.0829 18.058 16.1517 17.3307 14.6218 16.1267C16.7286 14.4715 18.0579 11.9132 18.0579 9.029C18.0579 6.14478 16.7034 3.58651 14.6218 1.93115C16.1516 0.72731 18.0829 0 20.1896 0C25.1807 0 29.2186 4.06304 29.2186 9.029Z" fill="#F79E1B"/>
</svg>
